PathFileType	4	(X/Y/Z)	walk-thru1-5-TP.trc
DataRate	CameraRate	NumFrames	NumMarkers	Units	OrigDataRate	OrigDataStartFrame	OrigNumFrames
120.00	120.00	       5	60	mm	120.00	114	       454
Frame#	Time	Top.Head			Front.Head			Rear.Head			Jaw			C7			R.Clavicle			L.Clavicle			R.Shoulder			L.Shoulder			R.Scapula			L.Scapula			R.Scap.Inf			R.Biceps.Lateral			R.Elbow			R.Elbow.Medial			R.Forearm			R.Ulna			R.Radius			R.Wrist			R.Thumb.M1			R.Thumb.M2			R.Thumb.M3			R.Finger3.M1			R.Finger3.M2			R.Finger3.M3			L.Biceps.Lateral			L.Elbow			L.Elbow.Medial			L.Forearm			L.Ulna			L.Radius			L.Wrist			L.Thumb.M1			L.Thumb.M2			L.Thumb.M3			L.Finger3.M1			L.Finger3.M2			L.Finger3.M3			V.Sacral			R.ASIS			L.ASIS			R.Thigh			R.Thigh.Front			R.Knee			R.Knee.Medial			R.Shank			R.Ankle			R.Ankle.Medial			R.Heel			R.Toe			R.MedFoot			L.Thigh			L.Knee			L.Knee.Medial			L.Shank			L.Ankle			L.Ankle.Medial			L.Heel			L.Toe			L.MedFoot			V_mid_ASIS			V_R_Knee_JC			V_L_Knee_JC			V_R_Elbow_JC			V_L_Elbow_JC			V_R_Ankle_JC			V_L_Ankle_JC			V_R_Wrist_JC			V_L_Wrist_JC			V_R_ScaTrpz_1stMC_JC			V_R_1stMC_1stPP_JC			V_R_1stPP_1stDP_JC			V_R_LunCap_3rdMC_JC			V_R_3rdMC_3rdPP_JC			V_R_3rdPP_3rdMP_JC			V_R_3rdMP_3rdDP_JC			V_L_ScaTrpz_1stMC_JC			V_L_1stMC_1stPP_JC			V_L_1stPP_1stDP_JC			V_L_LunCap_3rdMC_JC			V_L_3rdMC_3rdPP_JC			V_L_3rdPP_3rdMP_JC			V_L_3rdMP_3rdPP_JC			V_ROOT_JC			V_R_Hip_JC			V_L_Hip_JC			V_R_GlenHum_JC			V_L_GlenHum_JC			V_ForeHead_Ctr			V_Vertex			V_Sagit_Lambdoid_Suture			V_R_FrontoTemp			V_L_FrontoTemporal			V_R_ParietalOccip			V_L_ParietalOcciptal			V_R_Temporal			V_L_Temporal			V_mid_FrontRearHead			V_mid_RLGlenHumCtrs			V_C7_vert			V_C1_vert			V_Mid_Hip			
		X1	Y1	Z1	X2	Y2	Z2	X3	Y3	Z3	X4	Y4	Z4	X5	Y5	Z5	X6	Y6	Z6	X7	Y7	Z7	X8	Y8	Z8	X9	Y9	Z9	X10	Y10	Z10	X11	Y11	Z11	X12	Y12	Z12	X13	Y13	Z13	X14	Y14	Z14	X15	Y15	Z15	X16	Y16	Z16	X17	Y17	Z17	X18	Y18	Z18	X19	Y19	Z19	X20	Y20	Z20	X21	Y21	Z21	X22	Y22	Z22	X23	Y23	Z23	X24	Y24	Z24	X25	Y25	Z25	X26	Y26	Z26	X27	Y27	Z27	X28	Y28	Z28	X29	Y29	Z29	X30	Y30	Z30	X31	Y31	Z31	X32	Y32	Z32	X33	Y33	Z33	X34	Y34	Z34	X35	Y35	Z35	X36	Y36	Z36	X37	Y37	Z37	X38	Y38	Z38	X39	Y39	Z39	X40	Y40	Z40	X41	Y41	Z41	X42	Y42	Z42	X43	Y43	Z43	X44	Y44	Z44	X45	Y45	Z45	X46	Y46	Z46	X47	Y47	Z47	X48	Y48	Z48	X49	Y49	Z49	X50	Y50	Z50	X51	Y51	Z51	X52	Y52	Z52	X53	Y53	Z53	X54	Y54	Z54	X55	Y55	Z55	X56	Y56	Z56	X57	Y57	Z57	X58	Y58	Z58	X59	Y59	Z59	X60	Y60	Z60	

114	0.942	895.52185	-51.22806	1552.77380	794.02612	-40.67133	1454.02332	1006.49225	-52.21346	1470.83032	823.66650	-23.66939	1313.66443	1023.48541	-33.86560	1361.75391	946.57867	83.78900	1275.28723	916.16443	-130.75156	1280.41882	1001.33838	156.35831	1271.01929	959.49628	-227.67310	1279.65662	1076.52100	49.94681	1287.52673	1063.09692	-133.11304	1284.91101	1121.76135	31.94206	1204.51501	980.11560	213.62807	1131.78198	1004.88159	238.29828	970.14307	1033.16833	166.93321	951.65356	919.85968	227.70125	902.78552	938.17609	256.95752	817.34161	871.06818	208.68378	776.20282	868.33862	251.76819	747.12421	839.53003	211.42433	730.13165	823.17151	200.19594	695.03101	810.73383	196.58885	653.68274	836.85468	274.43100	680.81012	828.88812	263.28885	628.42889	837.32385	246.20558	590.75964	978.38458	-286.82910	1134.96106	1030.34949	-298.03244	991.02777	1059.05908	-219.26616	986.23608	943.12451	-268.63821	932.89142	942.25269	-299.78406	840.86902	893.01831	-235.69286	806.52246	877.22083	-281.33243	781.67645	859.81921	-236.06461	775.82513	845.70526	-211.38893	742.72028	840.31732	-205.90129	687.53314	840.22858	-273.17734	701.38733	831.89642	-263.09406	663.35614	836.81793	-234.38098	625.26941	1127.97937	-42.70222	896.69507	944.45081	132.16719	957.70129	928.69714	-182.80363	943.05560	976.07019	170.06198	566.50421	916.96106	113.15380	463.47897	982.40131	139.26680	419.66226	957.33923	32.32512	412.33630	1070.88550	81.74679	267.48886	1247.99768	81.15145	127.04984	1214.61926	-3.70853	136.10635	1304.09448	21.10022	136.13295	1141.51855	60.46029	36.38833	1166.70715	23.12069	83.73572	870.15399	-207.79536	577.24927	822.24274	-172.85573	446.40369	800.13922	-55.83353	441.31058	811.56927	-103.41663	253.08400	882.64856	-117.33156	62.37231	864.64691	-25.36130	84.78437	936.13458	-64.69323	42.98831	730.84644	-79.77757	39.52003	788.29840	-46.00920	61.99494																																																																																																																															
115	0.950	889.62970	-52.08395	1554.04358	787.26587	-41.02507	1455.13965	999.27722	-53.50263	1471.90662	816.83594	-25.41231	1314.74207	1016.26978	-34.94937	1364.03442	939.98254	82.67773	1276.24988	909.16180	-131.26170	1282.45667	995.21399	155.49959	1273.51123	953.62952	-227.99805	1281.54199	1070.06958	48.62741	1289.35632	1056.54358	-134.18419	1286.69177	1115.57141	30.50248	1206.24695	974.93524	212.30550	1133.44092	999.91345	236.85492	972.40118	1026.85535	165.56396	953.63647	916.58594	226.69817	903.53967	935.17352	255.74081	818.68280	868.92859	209.04010	776.46472	867.03815	251.41603	747.19824	837.80463	212.22574	729.87561	821.02765	201.02628	694.98468	809.33630	196.09233	654.01038	836.32007	273.58496	680.64276	828.06616	262.63516	627.74243	837.05573	244.75275	590.93921	970.82635	-287.77225	1136.41699	1023.39630	-298.82751	992.82867	1052.16479	-221.29056	988.48633	936.07874	-268.94388	934.24127	935.51703	-301.07352	842.45966	886.68542	-235.51012	808.34131	870.34784	-281.69427	782.88544	852.33917	-236.19470	777.72437	838.27441	-212.29169	744.26135	835.14691	-207.16014	688.19696	832.06818	-275.63544	704.02051	823.68781	-263.61731	666.11292	828.62634	-237.44604	627.06018	1122.11731	-43.78784	898.17371	938.92255	131.61449	959.19727	921.54736	-184.32491	944.74133	965.11017	169.76685	567.95673	905.57373	115.40102	465.78278	971.70691	140.20412	420.63840	943.74353	33.99710	411.74625	1058.94409	84.63582	269.77234	1241.61841	81.70507	131.88094	1207.32446	-3.30880	140.71989	1296.25537	21.08800	144.81313	1140.27588	61.17590	36.60184	1162.31555	23.39722	85.08303	870.72333	-207.54248	577.09723	822.86511	-173.38521	446.12964	800.07208	-55.84648	440.36740	811.47577	-103.40762	253.06465	882.64856	-117.33156	62.37231	864.50861	-25.52229	84.51691	936.21259	-64.69048	42.92662	730.58087	-80.03579	39.56258	788.60059	-45.95738	61.65555																																																																																																																															
116	0.958	882.45184	-53.10429	1555.74768	781.00952	-41.89865	1456.69189	993.31317	-54.21955	1473.63635	810.12781	-25.47601	1316.20386	1009.95807	-36.64922	1364.66174	934.50983	81.78561	1278.55566	902.53546	-131.44276	1283.49854	988.12793	154.60567	1275.81726	946.44019	-229.84966	1283.14844	1063.31360	47.40231	1290.88525	1049.97461	-135.86380	1288.48303	1108.63892	29.78599	1207.88647	968.64288	210.31876	1135.77551	995.36438	236.44766	974.39038	1022.28809	164.53275	956.06927	912.75842	226.69557	905.17218	933.07568	254.99687	819.09338	865.74146	208.90096	776.93835	863.94409	251.23656	747.50275	835.79877	212.68486	730.23773	818.54462	202.31116	695.96948	807.56281	195.71284	653.65857	836.11151	273.42206	680.05255	828.18555	261.58301	627.73956	837.07288	243.21358	590.84088	964.65442	-289.08267	1138.39124	1016.03314	-300.12531	994.45276	1044.86768	-222.48441	990.41193	929.03595	-269.71161	936.44196	928.13287	-302.20288	844.60181	881.80420	-236.21530	809.36115	862.74347	-283.12042	784.82233	846.11456	-237.53685	779.08392	831.32300	-212.25587	745.72284	829.03400	-209.52559	689.46857	826.03717	-276.54544	706.86017	815.34875	-265.82123	667.36133	819.53461	-239.22470	629.30194	1115.44458	-44.51775	899.83673	932.35364	129.92790	960.03131	915.69775	-184.37354	946.46600	955.37494	169.41805	569.11334	894.09027	115.72480	466.87411	959.36768	141.04332	421.52518	931.08563	35.09912	412.59384	1050.10046	85.19254	272.27069	1234.62744	82.79159	137.40660	1199.58655	-1.99607	143.65027	1289.16956	21.82565	151.59933	1138.75049	60.21447	37.08569	1156.76758	23.84530	85.82075	870.35858	-208.27576	576.58868	823.50543	-173.99460	446.19995	800.22327	-56.14375	439.94647	811.26208	-103.56409	252.74646	882.78064	-117.19159	62.31896	864.41443	-25.66687	85.05246	936.19983	-64.53177	42.86905	730.48822	-80.21976	39.63531	788.75598	-45.96901	61.68921																																																																																																																															
117	0.967	876.36627	-54.19843	1557.24817	773.92883	-42.55307	1458.00635	986.88281	-55.55892	1475.38074	804.12439	-27.10598	1317.53699	1003.13202	-38.62804	1366.58167	927.07257	79.83233	1280.11572	895.84607	-133.24725	1285.59912	981.71564	152.42091	1276.82898	938.99902	-230.31926	1284.45422	1057.14636	46.82315	1292.74341	1042.96753	-136.91481	1289.83691	1101.81348	28.23475	1208.98743	964.03302	209.45670	1137.39331	990.99005	234.31776	976.30408	1017.69397	163.28293	957.11554	909.02148	226.44539	906.33868	930.13074	253.93611	820.19098	863.54376	209.49911	778.09808	863.20123	251.39046	747.29193	833.82025	213.62144	730.22534	817.30945	200.39088	694.77606	806.29419	195.72745	653.65308	836.33759	272.84555	678.78101	829.12073	259.28232	627.29523	836.58020	241.40854	590.44537	957.44739	-291.07455	1139.91235	1009.30621	-301.08661	996.18127	1037.59729	-223.78416	991.51807	921.69952	-271.20703	937.71161	920.24774	-303.28467	845.86041	871.52258	-238.36868	812.77991	855.96350	-284.00497	786.11389	838.74048	-239.31815	779.54077	824.44098	-213.93648	746.61389	821.48041	-210.98830	689.64441	817.31628	-278.57104	708.15472	807.87299	-268.62421	670.14941	812.62823	-240.42087	631.51172	1109.07544	-45.59456	901.69617	927.13660	127.04224	961.02716	909.37555	-186.17436	948.28906	946.72729	168.73369	569.83856	883.52313	116.46792	467.62451	948.23798	140.28618	422.88211	919.25385	33.57372	413.13385	1040.17432	86.71177	273.46109	1225.73413	83.45769	143.47101	1190.68909	-2.14987	147.36644	1279.81445	21.58168	159.15903	1136.79016	60.08123	36.98889	1151.62476	24.50186	86.69215	870.13721	-208.43047	576.73163	823.47284	-174.70662	445.87708	800.32043	-56.01101	439.55060	811.28943	-103.66029	252.68340	882.78064	-117.19159	62.31896	864.31409	-25.81730	85.04393	936.19983	-64.53177	42.86905	730.39545	-80.59373	39.72268	788.49182	-46.55609	61.89729																																																																																																																															
118	0.975	869.40887	-55.48332	1558.61792	767.19141	-43.41749	1459.65283	979.54858	-56.53537	1476.58459	796.86340	-28.30434	1319.20874	996.67664	-39.55112	1367.85266	920.63568	79.06048	1281.65491	889.75543	-133.83809	1286.97607	975.06812	152.66588	1279.01355	932.62085	-230.17676	1286.19006	1049.93384	45.75773	1294.30518	1035.84961	-138.26584	1291.47754	1095.53796	27.33841	1211.17493	956.81799	207.90895	1138.35901	986.05334	232.83595	978.21246	1012.05096	162.67061	959.41925	905.13470	226.13983	907.32269	928.24628	253.37601	821.18536	859.61127	209.61395	778.39502	862.38470	251.18684	747.28162	831.67902	213.22313	730.36725	814.23181	201.77811	695.54095	804.48615	195.15927	653.74738	835.57355	272.09293	678.40314	829.35522	257.89648	626.57550	838.54010	238.07114	591.23712	950.44629	-292.67209	1141.00696	1003.03455	-302.58923	997.93378	1030.76050	-223.82959	993.18304	913.84808	-273.05646	940.15076	914.46124	-303.22757	847.32489	865.58160	-239.95116	815.01801	848.53174	-286.24417	788.34741	832.15533	-239.59970	781.80817	817.74872	-215.36542	748.46893	814.41443	-214.03937	691.79755	809.53589	-280.01407	710.52710	799.92346	-269.74124	671.90063	804.70343	-243.27640	633.13342	1103.43542	-46.67400	902.75354	920.44147	126.90850	962.79218	903.65216	-186.29097	949.41925	935.51282	169.72307	570.88507	872.20642	116.40047	470.07068	935.52472	140.23380	423.41486	902.61694	35.02901	414.31711	1028.97778	86.00145	274.96661	1216.67627	84.37240	147.98952	1182.28552	-1.03528	150.71121	1271.52649	23.30361	165.55879	1134.19702	59.29043	37.33023	1145.92578	24.45024	87.26606	869.42883	-209.20309	577.58545	823.56299	-174.87863	445.92657	800.46515	-55.97973	439.12494	811.28564	-103.93272	252.70914	882.80273	-117.56829	62.39455	864.26935	-25.99390	84.79210	936.22400	-64.43842	42.64437	730.79681	-80.16428	39.47251	788.48993	-46.83915	61.92966																																																																																																																															
